<?xml version="1.0" encoding="UTF-8"?>
<svg fill="none" viewBox="0 0 258 224" xmlns="http://www.w3.org/2000/svg">
<g clip-path="url(#a)" fill="#fff">
<path d="m240.54 224h-0.466c-22.367-0.601-38.385-12.702-45.103-34.111-4.738-15.145-4.272-32.249-3.864-47.356 0.136-4.887 0.252-9.502 0.155-13.322-0.252-15.534-11.028-16.717-14.329-16.717s-14.018 1.183-14.329 16.445v42.43c0 9.638-7.825 17.453-17.474 17.453-9.65 0-17.475-7.815-17.475-17.453v-42.876c0.544-33.432 25.202-50.905 49.259-50.905 24.076 0 48.714 17.492 49.278 50.905 0.116 4.577-0.02 9.638-0.175 14.99-0.33 12.373-0.719 26.393 2.291 35.992 2.252 7.195 5.203 9.444 12.679 9.638 9.649 0.252 17.26 8.281 17.008 17.919-0.252 9.483-8.019 16.987-17.455 16.987v-0.019z"/>
<path d="m145.14 223.71c-9.65 0-17.475-7.815-17.475-17.453v-77.569c0-9.638 7.825-17.453 17.475-17.453 9.649 0 17.474 7.815 17.474 17.453v77.569c0 9.638-7.825 17.453-17.474 17.453z"/>
<path d="m49.258 223.52c-24.056 0-48.715-17.492-49.258-50.904-0.15533-9.638 7.5334-17.57 17.183-17.744h0.2913c9.5138 0 17.319 7.621 17.474 17.162 0.2524 15.378 11.028 16.58 14.31 16.58s14.018-1.183 14.329-16.445v-121.26c0.5631-33.413 25.202-50.905 49.258-50.905 24.076 0 48.715 17.492 49.278 50.905 0.155 9.6379-7.534 17.589-17.183 17.744-9.611 0.2133-17.611-7.5242-17.766-17.162-0.252-15.378-11.048-16.58-14.329-16.58s-13.999 1.1829-14.31 16.464v121.24c-0.5436 33.412-25.202 50.904-49.278 50.904z"/>
</g>
<defs>
<clipPath id="a">
<rect width="258" height="224" fill="#fff"/>
</clipPath>
</defs>
</svg>
